{
    "asset" : {
        "generator" : "Khronos glTF Blender I/O v1.1.46",
        "version" : "2.0"
    },
    "extensionsUsed" : [
        "KHR_texture_transform"
    ],
    "extensionsRequired" : [
        "KHR_texture_transform"
    ],
    "scene" : 0,
    "scenes" : [
        {
            "name" : "Scene",
            "nodes" : [
                0,
                1,
                2
            ]
        }
    ],
    "nodes" : [
        {
            "name" : "Light",
            "rotation" : [
                0.16907575726509094,
                0.7558803558349609,
                -0.27217137813568115,
                0.570947527885437
            ],
            "translation" : [
                4.076245307922363,
                5.903861999511719,
                -1.0054539442062378
            ]
        },
        {
            "name" : "Camera",
            "rotation" : [
                0.483536034822464,
                0.33687159419059753,
                -0.20870360732078552,
                0.7804827094078064
            ],
            "translation" : [
                7.358891487121582,
                4.958309173583984,
                6.925790786743164
            ]
        },
        {
            "mesh" : 0,
            "name" : "aa_logo",
            "rotation" : [
                0.5000001192092896,
                0.5,
                0.49999991059303284,
                0.5
            ],
            "scale" : [
                0.009999999776482582,
                0.009999999776482582,
                0.009999999776482582
            ]
        }
    ],
    "animations" : [
        {
            "channels" : [
                {
                    "sampler" : 0,
                    "target" : {
                        "node" : 2,
                        "path" : "translation"
                    }
                },
                {
                    "sampler" : 1,
                    "target" : {
                        "node" : 2,
                        "path" : "rotation"
                    }
                },
                {
                    "sampler" : 2,
                    "target" : {
                        "node" : 2,
                        "path" : "scale"
                    }
                }
            ],
            "name" : "aa_logo|CINEMA_4D_Main|Layer0",
            "samplers" : [
                {
                    "input" : 8,
                    "interpolation" : "LINEAR",
                    "output" : 9
                },
                {
                    "input" : 8,
                    "interpolation" : "LINEAR",
                    "output" : 10
                },
                {
                    "input" : 8,
                    "interpolation" : "LINEAR",
                    "output" : 11
                }
            ]
        }
    ],
    "materials" : [
        {
            "doubleSided" : true,
            "emissiveFactor" : [
                0,
                0,
                0
            ],
            "name" : "Rough Blue.002",
            "pbrMetallicRoughness" : {
                "baseColorTexture" : {
                    "extensions" : {
                        "KHR_texture_transform" : {
                            "offset" : [
                                0,
                                -1
                            ]
                        }
                    },
                    "index" : 0,
                    "texCoord" : 0
                },
                "metallicFactor" : 0.800000011920929,
                "roughnessFactor" : 0
            }
        },
        {
            "doubleSided" : true,
            "emissiveFactor" : [
                0,
                0,
                0
            ],
            "name" : "Rough Blue.003",
            "pbrMetallicRoughness" : {
                "baseColorTexture" : {
                    "extensions" : {
                        "KHR_texture_transform" : {
                            "offset" : [
                                0,
                                -1
                            ]
                        }
                    },
                    "index" : 1,
                    "texCoord" : 0
                },
                "metallicFactor" : 0.800000011920929,
                "roughnessFactor" : 0
            }
        }
    ],
    "meshes" : [
        {
            "name" : "Mesh.001",
            "primitives" : [
                {
                    "attributes" : {
                        "POSITION" : 0,
                        "NORMAL" : 1,
                        "TEXCOORD_0" : 2
                    },
                    "indices" : 3,
                    "material" : 0
                },
                {
                    "attributes" : {
                        "POSITION" : 4,
                        "NORMAL" : 5,
                        "TEXCOORD_0" : 6
                    },
                    "indices" : 7,
                    "material" : 1
                }
            ]
        }
    ],
    "textures" : [
        {
            "source" : 0
        },
        {
            "source" : 1
        }
    ],
    "images" : [
        {
            "bufferView" : 4,
            "mimeType" : "image/png",
            "name" : "Recurso 3colorazul-Recurso 3colorazul.jpg"
        },
        {
            "bufferView" : 9,
            "mimeType" : "image/png",
            "name" : "Recurso 1colorazul-Recurso 1colorazul.jpg"
        }
    ],
    "accessors" : [
        {
            "bufferView" : 0,
            "componentType" : 5126,
            "count" : 7946,
            "max" : [
                370.383056640625,
                5,
                146.0342559814453
            ],
            "min" : [
                -370.383056640625,
                -7,
                -128.8892822265625
            ],
            "type" : "VEC3"
        },
        {
            "bufferView" : 1,
            "componentType" : 5126,
            "count" : 7946,
            "type" : "VEC3"
        },
        {
            "bufferView" : 2,
            "componentType" : 5126,
            "count" : 7946,
            "type" : "VEC2"
        },
        {
            "bufferView" : 3,
            "componentType" : 5123,
            "count" : 30552,
            "type" : "SCALAR"
        },
        {
            "bufferView" : 5,
            "componentType" : 5126,
            "count" : 16534,
            "max" : [
                348.5096435546875,
                7,
                149.90640258789062
            ],
            "min" : [
                -359.2008056640625,
                -7,
                -127.31327819824219
            ],
            "type" : "VEC3"
        },
        {
            "bufferView" : 6,
            "componentType" : 5126,
            "count" : 16534,
            "type" : "VEC3"
        },
        {
            "bufferView" : 7,
            "componentType" : 5126,
            "count" : 16534,
            "type" : "VEC2"
        },
        {
            "bufferView" : 8,
            "componentType" : 5123,
            "count" : 60324,
            "type" : "SCALAR"
        },
        {
            "bufferView" : 10,
            "componentType" : 5126,
            "count" : 91,
            "max" : [
                3.033333333333333
            ],
            "min" : [
                0.03333333333333333
            ],
            "type" : "SCALAR"
        },
        {
            "bufferView" : 11,
            "componentType" : 5126,
            "count" : 91,
            "type" : "VEC3"
        },
        {
            "bufferView" : 12,
            "componentType" : 5126,
            "count" : 91,
            "type" : "VEC4"
        },
        {
            "bufferView" : 13,
            "componentType" : 5126,
            "count" : 91,
            "type" : "VEC3"
        }
    ],
    "bufferViews" : [
        {
            "buffer" : 0,
            "byteLength" : 95352,
            "byteOffset" : 0
        },
        {
            "buffer" : 0,
            "byteLength" : 95352,
            "byteOffset" : 95352
        },
        {
            "buffer" : 0,
            "byteLength" : 63568,
            "byteOffset" : 190704
        },
        {
            "buffer" : 0,
            "byteLength" : 61104,
            "byteOffset" : 254272
        },
        {
            "buffer" : 0,
            "byteLength" : 884,
            "byteOffset" : 315376
        },
        {
            "buffer" : 0,
            "byteLength" : 198408,
            "byteOffset" : 316260
        },
        {
            "buffer" : 0,
            "byteLength" : 198408,
            "byteOffset" : 514668
        },
        {
            "buffer" : 0,
            "byteLength" : 132272,
            "byteOffset" : 713076
        },
        {
            "buffer" : 0,
            "byteLength" : 120648,
            "byteOffset" : 845348
        },
        {
            "buffer" : 0,
            "byteLength" : 839,
            "byteOffset" : 965996
        },
        {
            "buffer" : 0,
            "byteLength" : 364,
            "byteOffset" : 966836
        },
        {
            "buffer" : 0,
            "byteLength" : 1092,
            "byteOffset" : 967200
        },
        {
            "buffer" : 0,
            "byteLength" : 1456,
            "byteOffset" : 968292
        },
        {
            "buffer" : 0,
            "byteLength" : 1092,
            "byteOffset" : 969748
        }
    ],
    "buffers" : [
        {
            "byteLength" : 970840,
            "uri" : "data:application/octet-stream;base64,"
        }
    ]
}
