{"asset":{"version":"2.0","generator":"babylon.js glTF exporter for Maya 2018 v20200312.5"},"scene":0,"scenes":[{"nodes":[0]}],"nodes":[{"children":[1,2,3,4,5,6,7,8],"name":"Emily_Character"},{"mesh":0,"name":"RL_Hair","extras":{"UDP3DSMAX":"MapChannel:1 = Channel0&cr;&lf;","MaxHandle":80}},{"mesh":1,"name":"T_shirt_TPose","extras":{"UDP3DSMAX":"MapChannel:1 = Channel0&cr;&lf;","MaxHandle":79}},{"mesh":2,"name":"Low_rise_Shorts","extras":{"UDP3DSMAX":"MapChannel:1 = Channel0&cr;&lf;","MaxHandle":78}},{"mesh":3,"name":"CC_Base_Eye","extras":{"UDP3DSMAX":"MapChannel:1 = Channel0&cr;&lf;","MaxHandle":77}},{"mesh":4,"name":"CC_Base_Teeth","extras":{"UDP3DSMAX":"MapChannel:1 = Channel0&cr;&lf;","MaxHandle":76}},{"mesh":5,"name":"CC_Game_Body","extras":{"UDP3DSMAX":"MapChannel:1 = Channel0&cr;&lf;MapChannel:2 = Channel1&cr;&lf;","MaxHandle":75}},{"mesh":6,"name":"CC_Game_Tongue","extras":{"UDP3DSMAX":"MapChannel:1 = Channel0&cr;&lf;","MaxHandle":74}},{"children":[9],"rotation":[-0.7071067,0.0,0.0,0.7071068],"name":"root"},{"children":[10],"translation":[2.59434946E-05,0.030966036,0.96218586],"rotation":[3.3074914E-06,-0.705585659,3.3074914E-06,0.708624661],"name":"pelvis"},{"children":[11],"translation":[0.06653296,-0.014847531,1.81034375E-05],"rotation":[4.206537E-06,-8.483788E-05,-0.06818578,0.9976726],"name":"spine_01"},{"children":[12],"translation":[0.0356114246,-0.00627933349,-1.57169888E-09],"rotation":[2.28220142E-05,-0.000255652645,0.125411212,0.9921048],"name":"spine_02"},{"children":[13],"translation":[0.12044438,-0.0105377408,-3.04143044E-09],"rotation":[3.30810035E-05,-0.000159790783,0.0356861651,0.999363],"name":"spine_03"},{"children":[14],"translation":[0.2498418,9.95874E-06,-6.506156E-07],"rotation":[0.0004368691,0.00117954181,-0.188371465,0.982097],"name":"neck_01"},{"children":[15],"translation":[0.0671269,1.31199172E-07,-4.65080463E-09],"rotation":[-0.000242503927,-0.00135183136,0.13425985,0.9909452],"name":"head"},{"children":[16],"translation":[0.0,-2.853192E-08,-1.2819622E-09],"rotation":[0.737278,0.6755895,-4.688481E-06,7.727739E-06],"scale":[0.9999999,0.99999994,0.9999999],"name":"CC_Base_FacialBone"},{"translation":[-0.0608492829,0.0265806578,2.6710868E-05],"rotation":[-5.01439135E-05,-1.66849031E-06,-1.0,9.986938E-06],"scale":[1.00000012,1.0,1.00000024],"name":"CC_Base_UpperJaw"}],"meshes":[{"primitives":[{"attributes":{"POSITION":1,"TANGENT":2,"NORMAL":3,"TEXCOORD_0":4},"indices":0,"material":0}],"name":"RL_Hair"},{"primitives":[{"attributes":{"POSITION":6,"TANGENT":7,"NORMAL":8,"TEXCOORD_0":9},"indices":5,"material":1}],"name":"T_shirt_TPose"},{"primitives":[{"attributes":{"POSITION":11,"TANGENT":12,"NORMAL":13,"TEXCOORD_0":14},"indices":10,"material":2}],"name":"Low_rise_Shorts"},{"primitives":[{"attributes":{"POSITION":16,"TANGENT":17,"NORMAL":18,"TEXCOORD_0":19},"indices":15}],"name":"CC_Base_Eye"},{"primitives":[{"attributes":{"POSITION":21,"TANGENT":22,"NORMAL":23,"TEXCOORD_0":24},"indices":20,"material":3},{"attributes":{"POSITION":26,"TANGENT":27,"NORMAL":28,"TEXCOORD_0":29},"indices":25,"material":4}],"name":"CC_Base_Teeth"},{"primitives":[{"attributes":{"POSITION":31,"TANGENT":32,"NORMAL":33,"TEXCOORD_0":34,"TEXCOORD_1":35},"indices":30,"material":5}],"name":"CC_Game_Body"},{"primitives":[{"attributes":{"POSITION":37,"TANGENT":38,"NORMAL":39,"TEXCOORD_0":40},"indices":36}],"name":"CC_Game_Tongue"}],"accessors":[{"bufferView":0,"componentType":5123,"count":3099,"type":"SCALAR","name":"accessorIndices"},{"bufferView":1,"componentType":5126,"count":713,"max":[0.103097506,1.70611465,0.0711282641],"min":[-0.111628689,1.3262558,-0.148347378],"type":"VEC3","name":"accessorPositions"},{"bufferView":2,"componentType":5126,"count":713,"type":"VEC4","name":"accessorTangents"},{"bufferView":1,"byteOffset":8556,"componentType":5126,"count":713,"type":"VEC3","name":"accessorNormals"},{"bufferView":3,"componentType":5126,"count":713,"type":"VEC2","name":"accessorUVs"},{"bufferView":0,"byteOffset":6200,"componentType":5123,"count":8526,"type":"SCALAR","name":"accessorIndices"},{"bufferView":1,"byteOffset":17112,"componentType":5126,"count":1600,"max":[0.358926266,1.44163525,0.113356642],"min":[-0.3579212,0.8669921,-0.171572357],"type":"VEC3","name":"accessorPositions"},{"bufferView":2,"byteOffset":11408,"componentType":5126,"count":1600,"type":"VEC4","name":"accessorTangents"},{"bufferView":1,"byteOffset":36312,"componentType":5126,"count":1600,"type":"VEC3","name":"accessorNormals"},{"bufferView":3,"byteOffset":5704,"componentType":5126,"count":1600,"type":"VEC2","name":"accessorUVs"},{"bufferView":0,"byteOffset":23252,"componentType":5123,"count":5271,"type":"SCALAR","name":"accessorIndices"},{"bufferView":1,"byteOffset":55512,"componentType":5126,"count":1028,"max":[0.168204457,1.012984,0.08922455],"min":[-0.169379309,0.781129539,-0.1577678],"type":"VEC3","name":"accessorPositions"},{"bufferView":2,"byteOffset":37008,"componentType":5126,"count":1028,"type":"VEC4","name":"accessorTangents"},{"bufferView":1,"byteOffset":67848,"componentType":5126,"count":1028,"type":"VEC3","name":"accessorNormals"},{"bufferView":3,"byteOffset":18504,"componentType":5126,"count":1028,"type":"VEC2","name":"accessorUVs"},{"bufferView":0,"byteOffset":33796,"componentType":5123,"count":3840,"type":"SCALAR","name":"accessorIndices"},{"bufferView":1,"byteOffset":80184,"componentType":5126,"count":660,"max":[0.05215919,1.58168566,0.04596118],"min":[-0.0475896671,1.54432869,0.008446857],"type":"VEC3","name":"accessorPositions"},{"bufferView":2,"byteOffset":53456,"componentType":5126,"count":660,"type":"VEC4","name":"accessorTangents"},{"bufferView":1,"byteOffset":88104,"componentType":5126,"count":660,"type":"VEC3","name":"accessorNormals"},{"bufferView":3,"byteOffset":26728,"componentType":5126,"count":660,"type":"VEC2","name":"accessorUVs"},{"bufferView":0,"byteOffset":41476,"componentType":5123,"count":7086,"type":"SCALAR","name":"accessorIndices"},{"bufferView":1,"byteOffset":96024,"componentType":5126,"count":1403,"max":[0.0302269366,1.52391934,0.0553178526],"min":[-0.025843773,1.49646628,0.000174040673],"type":"VEC3","name":"accessorPositions"},{"bufferView":2,"byteOffset":64016,"componentType":5126,"count":1403,"type":"VEC4","name":"accessorTangents"},{"bufferView":1,"byteOffset":112860,"componentType":5126,"count":1403,"type":"VEC3","name":"accessorNormals"},{"bufferView":3,"byteOffset":32008,"componentType":5126,"count":1403,"type":"VEC2","name":"accessorUVs"},{"bufferView":0,"byteOffset":55648,"componentType":5123,"count":7440,"type":"SCALAR","name":"accessorIndices"},{"bufferView":1,"byteOffset":129696,"componentType":5126,"count":1474,"max":[0.0301290546,1.50935316,0.05240003],"min":[-0.0259663966,1.47627819,-0.007099639],"type":"VEC3","name":"accessorPositions"},{"bufferView":2,"byteOffset":86464,"componentType":5126,"count":1474,"type":"VEC4","name":"accessorTangents"},{"bufferView":1,"byteOffset":147384,"componentType":5126,"count":1474,"type":"VEC3","name":"accessorNormals"},{"bufferView":3,"byteOffset":43232,"componentType":5126,"count":1474,"type":"VEC2","name":"accessorUVs"},{"bufferView":0,"byteOffset":70528,"componentType":5123,"count":31956,"type":"SCALAR","name":"accessorIndices"},{"bufferView":1,"byteOffset":165072,"componentType":5126,"count":6595,"max":[0.8106702,1.67515051,0.155711859],"min":[-0.8074962,9.04037952E-05,-0.1470289],"type":"VEC3","name":"accessorPositions"},{"bufferView":2,"byteOffset":110048,"componentType":5126,"count":6595,"type":"VEC4","name":"accessorTangents"},{"bufferView":1,"byteOffset":244212,"componentType":5126,"count":6595,"type":"VEC3","name":"accessorNormals"},{"bufferView":3,"byteOffset":55024,"componentType":5126,"count":6595,"type":"VEC2","name":"accessorUVs"},{"bufferView":3,"byteOffset":107784,"componentType":5126,"count":6595,"type":"VEC2","name":"accessorUV2s"},{"bufferView":0,"byteOffset":134440,"componentType":5123,"count":300,"type":"SCALAR","name":"accessorIndices"},{"bufferView":1,"byteOffset":323352,"componentType":5126,"count":65,"max":[0.0189604387,1.50611019,0.04869788],"min":[-0.0147226341,1.48492324,-0.00711039267],"type":"VEC3","name":"accessorPositions"},{"bufferView":2,"byteOffset":215568,"componentType":5126,"count":65,"type":"VEC4","name":"accessorTangents"},{"bufferView":1,"byteOffset":324132,"componentType":5126,"count":65,"type":"VEC3","name":"accessorNormals"},{"bufferView":3,"byteOffset":160544,"componentType":5126,"count":65,"type":"VEC2","name":"accessorUVs"},{"bufferView":4,"componentType":5126,"count":1,"max":[0.0],"min":[0.0],"type":"SCALAR","name":"accessorAnimationInput"},{"bufferView":5,"componentType":5126,"count":1,"type":"VEC4","name":"accessorAnimationRotations"},{"bufferView":4,"byteOffset":4,"componentType":5126,"count":1,"max":[0.0],"min":[0.0],"type":"SCALAR","name":"accessorAnimationInput"},{"bufferView":6,"componentType":5126,"count":1,"type":"VEC3","name":"accessorAnimationPositions"},{"bufferView":4,"byteOffset":8,"componentType":5126,"count":1,"max":[0.0],"min":[0.0],"type":"SCALAR","name":"accessorAnimationInput"},{"bufferView":5,"byteOffset":16,"componentType":5126,"count":1,"type":"VEC4","name":"accessorAnimationRotations"}],"bufferViews":[{"buffer":0,"byteLength":135040,"name":"bufferViewScalar"},{"buffer":0,"byteOffset":135040,"byteLength":324912,"byteStride":12,"name":"bufferViewFloatVec3"},{"buffer":0,"byteOffset":459952,"byteLength":216608,"byteStride":16,"name":"bufferViewFloatVec4"},{"buffer":0,"byteOffset":676560,"byteLength":161064,"byteStride":8,"name":"bufferViewFloatVec2"},{"buffer":0,"byteOffset":837624,"byteLength":12,"name":"bufferViewAnimationFloatScalar"},{"buffer":0,"byteOffset":837636,"byteLength":32,"name":"bufferViewAnimationFloatVec4"},{"buffer":0,"byteOffset":837668,"byteLength":12,"name":"bufferViewAnimationFloatVec3"}],"buffers":[{"uri":"emily.bin","byteLength":837680}],"materials":[{"pbrMetallicRoughness":{"baseColorFactor":[0.0,0.0,0.0,1.0],"metallicFactor":0.0,"roughnessFactor":0.291566133},"emissiveFactor":[1.0,1.0,1.0],"name":"Hair_Phong_MAT","extras":{"babylonUnlit":0,"babylonMaxSimultaneousLights":4,"babylonTransparencyMode":-1}},{"pbrMetallicRoughness":{"baseColorFactor":[0.0,0.0,0.0,1.0],"metallicFactor":0.0,"roughnessFactor":0.239040837},"emissiveFactor":[1.0,1.0,1.0],"name":"T_shirt","extras":{"babylonUnlit":0,"babylonMaxSimultaneousLights":4,"babylonTransparencyMode":-1}},{"pbrMetallicRoughness":{"baseColorFactor":[0.0,0.0,0.0,1.0],"metallicFactor":0.0,"roughnessFactor":0.23726733},"emissiveFactor":[1.0,1.0,1.0],"name":"Low_rise_Shorts_ncl1_1","extras":{"babylonUnlit":0,"babylonMaxSimultaneousLights":4,"babylonTransparencyMode":-1}},{"pbrMetallicRoughness":{"baseColorFactor":[0.0,0.0,0.0,1.0],"metallicFactor":0.0,"roughnessFactor":0.450053632},"emissiveFactor":[1.0,1.0,1.0],"name":"Std_Upper_Teeth","extras":{"babylonUnlit":0,"babylonMaxSimultaneousLights":4,"babylonTransparencyMode":-1}},{"pbrMetallicRoughness":{"baseColorFactor":[0.0,0.0,0.0,1.0],"metallicFactor":0.0,"roughnessFactor":0.450053632},"emissiveFactor":[1.0,1.0,1.0],"name":"Std_Lower_Teeth","extras":{"babylonUnlit":0,"babylonMaxSimultaneousLights":4,"babylonTransparencyMode":-1}},{"pbrMetallicRoughness":{"baseColorFactor":[0.0,0.0,0.0,1.0],"metallicFactor":0.0,"roughnessFactor":0.2581639},"emissiveFactor":[0.196078449,0.196078449,0.196078449],"name":"Ga_Skin_Body","extras":{"babylonUnlit":0,"babylonMaxSimultaneousLights":4,"babylonTransparencyMode":-1}}],"animations":[{"channels":[{"sampler":0,"target":{"node":15,"path":"rotation"}},{"sampler":1,"target":{"node":16,"path":"translation"}},{"sampler":2,"target":{"node":16,"path":"rotation"}}],"samplers":[{"input":41,"interpolation":0,"output":42},{"input":43,"interpolation":0,"output":44},{"input":45,"interpolation":0,"output":46}],"name":"All Animations"}]}