{
    "asset" : {
        "generator" : "Khronos glTF Blender I/O v1.1.46",
        "version" : "2.0"
    },
    "extensionsUsed" : [
        "KHR_texture_transform"
    ],
    "extensionsRequired" : [
        "KHR_texture_transform"
    ],
    "scene" : 0,
    "scenes" : [
        {
            "name" : "Scene",
            "nodes" : [
                0,
                1,
                2
            ]
        }
    ],
    "nodes" : [
        {
            "name" : "Light",
            "rotation" : [
                0.16907575726509094,
                0.7558803558349609,
                -0.27217137813568115,
                0.570947527885437
            ],
            "translation" : [
                4.076245307922363,
                5.903861999511719,
                -1.0054539442062378
            ]
        },
        {
            "name" : "Camera",
            "rotation" : [
                0.483536034822464,
                0.33687159419059753,
                -0.20870360732078552,
                0.7804827094078064
            ],
            "translation" : [
                7.358891487121582,
                4.958309173583984,
                6.925790786743164
            ]
        },
        {
            "mesh" : 0,
            "name" : "Extrusi\u00f3n_1",
            "rotation" : [
                0.5000001192092896,
                0.5,
                0.49999991059303284,
                0.5
            ],
            "scale" : [
                0.009999999776482582,
                0.009999999776482582,
                0.009999999776482582
            ]
        }
    ],
    "animations" : [
        {
            "channels" : [
                {
                    "sampler" : 0,
                    "target" : {
                        "node" : 2,
                        "path" : "translation"
                    }
                },
                {
                    "sampler" : 1,
                    "target" : {
                        "node" : 2,
                        "path" : "rotation"
                    }
                },
                {
                    "sampler" : 2,
                    "target" : {
                        "node" : 2,
                        "path" : "scale"
                    }
                }
            ],
            "name" : "Extrusi\u00f3n_1|CINEMA_4D_Principal|Layer0",
            "samplers" : [
                {
                    "input" : 8,
                    "interpolation" : "LINEAR",
                    "output" : 9
                },
                {
                    "input" : 8,
                    "interpolation" : "LINEAR",
                    "output" : 10
                },
                {
                    "input" : 8,
                    "interpolation" : "LINEAR",
                    "output" : 11
                }
            ]
        }
    ],
    "materials" : [
        {
            "doubleSided" : true,
            "emissiveFactor" : [
                0,
                0,
                0
            ],
            "name" : "Rough Blue",
            "pbrMetallicRoughness" : {
                "baseColorTexture" : {
                    "extensions" : {
                        "KHR_texture_transform" : {
                            "offset" : [
                                0,
                                -1
                            ]
                        }
                    },
                    "index" : 0,
                    "texCoord" : 0
                },
                "metallicFactor" : 0.800000011920929,
                "roughnessFactor" : 0
            }
        },
        {
            "doubleSided" : true,
            "emissiveFactor" : [
                0,
                0,
                0
            ],
            "name" : "Rough Blue.001",
            "pbrMetallicRoughness" : {
                "baseColorTexture" : {
                    "extensions" : {
                        "KHR_texture_transform" : {
                            "offset" : [
                                0,
                                -1
                            ]
                        }
                    },
                    "index" : 1,
                    "texCoord" : 0
                },
                "metallicFactor" : 0.800000011920929,
                "roughnessFactor" : 0
            }
        }
    ],
    "meshes" : [
        {
            "name" : "Mesh",
            "primitives" : [
                {
                    "attributes" : {
                        "POSITION" : 0,
                        "NORMAL" : 1,
                        "TEXCOORD_0" : 2
                    },
                    "indices" : 3,
                    "material" : 0
                },
                {
                    "attributes" : {
                        "POSITION" : 4,
                        "NORMAL" : 5,
                        "TEXCOORD_0" : 6
                    },
                    "indices" : 7,
                    "material" : 1
                }
            ]
        }
    ],
    "textures" : [
        {
            "source" : 0
        },
        {
            "source" : 1
        }
    ],
    "images" : [
        {
            "bufferView" : 4,
            "mimeType" : "image/png",
            "name" : "Recurso 3colorazul-Recurso 3colorazul.jpg"
        },
        {
            "bufferView" : 9,
            "mimeType" : "image/png",
            "name" : "Recurso 1colorazul-Recurso 1colorazul.jpg"
        }
    ],
    "accessors" : [
        {
            "bufferView" : 0,
            "componentType" : 5126,
            "count" : 2534,
            "max" : [
                296.4522705078125,
                8.5,
                29.861637115478516
            ],
            "min" : [
                218.35186767578125,
                -8.5,
                -41.44944763183594
            ],
            "type" : "VEC3"
        },
        {
            "bufferView" : 1,
            "componentType" : 5126,
            "count" : 2534,
            "type" : "VEC3"
        },
        {
            "bufferView" : 2,
            "componentType" : 5126,
            "count" : 2534,
            "type" : "VEC2"
        },
        {
            "bufferView" : 3,
            "componentType" : 5123,
            "count" : 9792,
            "type" : "SCALAR"
        },
        {
            "bufferView" : 5,
            "componentType" : 5126,
            "count" : 12622,
            "max" : [
                354.8442077636719,
                8.5,
                66.33830261230469
            ],
            "min" : [
                -354.8442077636719,
                -8.5,
                -66.33830261230469
            ],
            "type" : "VEC3"
        },
        {
            "bufferView" : 6,
            "componentType" : 5126,
            "count" : 12622,
            "type" : "VEC3"
        },
        {
            "bufferView" : 7,
            "componentType" : 5126,
            "count" : 12622,
            "type" : "VEC2"
        },
        {
            "bufferView" : 8,
            "componentType" : 5123,
            "count" : 46008,
            "type" : "SCALAR"
        },
        {
            "bufferView" : 10,
            "componentType" : 5126,
            "count" : 91,
            "max" : [
                3.033333333333333
            ],
            "min" : [
                0.03333333333333333
            ],
            "type" : "SCALAR"
        },
        {
            "bufferView" : 11,
            "componentType" : 5126,
            "count" : 91,
            "type" : "VEC3"
        },
        {
            "bufferView" : 12,
            "componentType" : 5126,
            "count" : 91,
            "type" : "VEC4"
        },
        {
            "bufferView" : 13,
            "componentType" : 5126,
            "count" : 91,
            "type" : "VEC3"
        }
    ],
    "bufferViews" : [
        {
            "buffer" : 0,
            "byteLength" : 30408,
            "byteOffset" : 0
        },
        {
            "buffer" : 0,
            "byteLength" : 30408,
            "byteOffset" : 30408
        },
        {
            "buffer" : 0,
            "byteLength" : 20272,
            "byteOffset" : 60816
        },
        {
            "buffer" : 0,
            "byteLength" : 19584,
            "byteOffset" : 81088
        },
        {
            "buffer" : 0,
            "byteLength" : 884,
            "byteOffset" : 100672
        },
        {
            "buffer" : 0,
            "byteLength" : 151464,
            "byteOffset" : 101556
        },
        {
            "buffer" : 0,
            "byteLength" : 151464,
            "byteOffset" : 253020
        },
        {
            "buffer" : 0,
            "byteLength" : 100976,
            "byteOffset" : 404484
        },
        {
            "buffer" : 0,
            "byteLength" : 92016,
            "byteOffset" : 505460
        },
        {
            "buffer" : 0,
            "byteLength" : 839,
            "byteOffset" : 597476
        },
        {
            "buffer" : 0,
            "byteLength" : 364,
            "byteOffset" : 598316
        },
        {
            "buffer" : 0,
            "byteLength" : 1092,
            "byteOffset" : 598680
        },
        {
            "buffer" : 0,
            "byteLength" : 1456,
            "byteOffset" : 599772
        },
        {
            "buffer" : 0,
            "byteLength" : 1092,
            "byteOffset" : 601228
        }
    ],
    "buffers" : [
        {
            "byteLength" : 602320,
            "uri" : "data:application/octet-stream;base64,"
        }
    ]
}
